<?xml version="1.0" standalone="no"?>
<!DOCTYPE svg PUBLIC "-//W3C//DTD SVG 20010904//EN"
 "http://www.w3.org/TR/2001/REC-SVG-20010904/DTD/svg10.dtd">
<svg version="1.0" xmlns="http://www.w3.org/2000/svg"
 width="176.000000pt" height="176.000000pt" viewBox="0 0 176.000000 176.000000"
 preserveAspectRatio="xMidYMid meet">

<g transform="translate(0.000000,176.000000) scale(0.100000,-0.100000)"
fill="#000000" stroke="none">
<path d="M717 1744 c-168 -30 -331 -117 -457 -244 -345 -345 -345 -895 0
-1240 345 -345 895 -345 1240 0 345 345 345 895 0 1240 -206 207 -494 296
-783 244z m18 -544 l0 -55 -102 -3 -103 -3 0 -44 0 -45 75 0 75 0 0 -60 0 -60
-75 0 -75 0 0 -99 c0 -110 1 -108 -70 -107 l-45 1 -3 268 -2 267 162 -2 163
-3 0 -55z m372 -65 c37 -69 71 -125 76 -125 4 0 7 56 7 125 l0 125 60 0 60 0
-2 -267 -3 -268 -54 0 c-61 -1 -56 -6 -145 158 -26 48 -51 87 -57 87 -5 0 -9
-52 -9 -123 l0 -124 -57 1 -58 1 -3 268 -2 267 59 0 60 0 68 -125z m313 -490
c0 -13 -64 -15 -537 -13 -418 2 -537 6 -541 16 -3 9 109 12 537 12 476 0 541
-2 541 -15z m-1000 -148 c-4 -19 -13 -42 -19 -53 -10 -16 -11 -13 -6 21 6 34
20 65 30 65 2 0 0 -15 -5 -33z m456 -4 l16 -38 14 40 14 40 -6 -44 c-8 -69
-27 -84 -39 -31 -9 39 -21 38 -30 -2 -4 -18 -9 -28 -12 -21 -4 12 14 93 22 93
3 0 12 -17 21 -37z m472 -5 c-6 -24 -15 -47 -21 -53 -7 -7 -8 -4 -4 7 3 9 9
33 13 52 3 20 10 36 14 36 4 0 3 -19 -2 -42z m-323 -24 l-15 -39 6 40 c6 44
16 65 21 49 2 -6 -4 -28 -12 -50z m-503 -4 c-2 -16 -9 -30 -14 -30 -6 0 -8 10
-4 23 3 12 6 28 6 35 0 7 4 11 8 8 5 -3 7 -19 4 -36z m33 -7 c-9 -37 -18 -20
-9 19 4 18 9 27 11 20 3 -7 2 -24 -2 -39z m56 -4 c-9 -23 -10 -23 -10 -2 -1
12 2 30 6 40 6 15 8 15 11 2 1 -8 -2 -26 -7 -40z m79 42 c0 -5 -7 -14 -15 -21
-8 -7 -15 -19 -15 -26 0 -8 -7 -14 -15 -14 -11 0 -9 8 8 35 21 33 37 44 37 26z
m80 -3 c0 -25 -12 -58 -19 -53 -10 6 -1 65 10 65 5 0 9 -6 9 -12z m217 -10
c-3 -8 -6 -5 -6 6 -1 11 2 17 5 13 3 -3 4 -12 1 -19z m89 -46 c-13 -12 -17 8
-10 40 l9 33 3 -33 c2 -19 1 -36 -2 -40z m44 23 c-5 -27 -9 -35 -14 -24 -6 14
10 76 18 68 2 -2 1 -22 -4 -44z m40 -5 c-17 -32 -22 -18 -8 21 8 22 13 28 16
17 2 -9 -2 -27 -8 -38z m90 21 c0 -10 -6 -23 -13 -29 -10 -9 -12 -4 -9 23 4
35 22 39 22 6z m130 -6 c-6 -8 -9 -19 -5 -25 3 -5 1 -10 -4 -10 -14 0 -14 13
1 46 7 14 14 21 16 15 2 -7 -1 -18 -8 -26z m-908 -10 c-5 -18 -11 -25 -16 -17
-4 6 -2 21 4 33 15 28 21 20 12 -16z m244 -23 c-12 -12 -18 8 -10 35 l8 28 4
-28 c2 -16 1 -31 -2 -35z m232 28 c-1 -16 -6 -30 -10 -30 -9 0 -10 22 -2 44
10 25 15 19 12 -14z m248 -28 c-12 -12 -18 8 -10 35 l8 28 4 -28 c2 -16 1 -31
-2 -35z m90 42 c-3 -9 -6 -22 -6 -30 0 -8 -4 -14 -8 -14 -5 0 -7 14 -4 30 2
17 9 30 14 30 6 0 7 -7 4 -16z"/>
</g>
</svg>
